<svg xmlns="http://www.w3.org/2000/svg" width="25.158" height="25.158" viewBox="0 0 25.158 25.158">
  <path id="logo-facebook" d="M87.769,64H65.389A1.39,1.39,0,0,0,64,65.389V87.769a1.39,1.39,0,0,0,1.389,1.389h11.19V79.2H73.572V75.531h3.007V72.819c0-3.25,2.254-5.019,5.156-5.019,1.389,0,2.883.1,3.23.151v3.394H82.653c-1.579,0-1.88.747-1.88,1.848v2.339h3.761L84.042,79.2H80.772v9.959h7a1.39,1.39,0,0,0,1.389-1.389V65.389A1.39,1.39,0,0,0,87.769,64Z" transform="translate(-64 -64)" fill="#004b99"/>
</svg>
