<svg xmlns="http://www.w3.org/2000/svg" width="82.608" height="88.71" viewBox="0 0 82.608 88.71">
  <g id="i-locker-resize" transform="translate(-233 -2233)">
    <g id="Group_2002" data-name="Group 2002" transform="translate(-1472.632 318.66)">
      <rect id="Rectangle_232" data-name="Rectangle 232" width="80.763" height="62.866" transform="translate(1706.554 1915.263)" fill="#fff"/>
      <path id="Path_2104" data-name="Path 2104" d="M183.661,207.469H101.053V142.758h82.608ZM102.9,205.624h78.918V144.6H102.9Z" transform="translate(1604.579 1771.582)" fill="#83a3c4"/>
      <path id="Path_2105" data-name="Path 2105" d="M219.789,280.056h-61.48V231.768h61.48Zm-59.634-1.845h57.789v-44.6H160.154Z" transform="translate(1557.887 1698.995)" fill="#83a3c4"/>
      <rect id="Rectangle_233" data-name="Rectangle 233" width="58.658" height="0.923" transform="translate(1717.607 1936.661)" fill="#83a3c4"/>
      <rect id="Rectangle_234" data-name="Rectangle 234" width="58.658" height="0.923" transform="translate(1717.607 1942.664)" fill="#83a3c4"/>
      <rect id="Rectangle_235" data-name="Rectangle 235" width="58.658" height="0.923" transform="translate(1717.607 1948.668)" fill="#83a3c4"/>
      <rect id="Rectangle_236" data-name="Rectangle 236" width="58.658" height="0.923" transform="translate(1717.607 1954.671)" fill="#83a3c4"/>
      <rect id="Rectangle_237" data-name="Rectangle 237" width="58.658" height="0.923" transform="translate(1717.607 1960.675)" fill="#83a3c4"/>
      <rect id="Rectangle_238" data-name="Rectangle 238" width="58.658" height="0.923" transform="translate(1717.607 1966.678)" fill="#83a3c4"/>
      <rect id="Rectangle_239" data-name="Rectangle 239" width="58.658" height="0.923" transform="translate(1717.607 1972.682)" fill="#83a3c4"/>
    </g>
    <g id="Group_2003" data-name="Group 2003" transform="translate(-1428.475 269.71)">
      <rect id="Rectangle_240" data-name="Rectangle 240" width="45.425" height="45.425" transform="translate(1679.762 2005.288)" fill="#fff"/>
      <path id="Path_2106" data-name="Path 2106" d="M2.575,2.576h42.85v42.85H2.575ZM0,48H48V0H0Z" transform="translate(1678.475 2003.999)" fill="#f78d1e"/>
      <path id="Path_2107" data-name="Path 2107" d="M45.051,69.432l7.144,7.144L69.848,58.923" transform="translate(1645.025 1960.251)" fill="none"/>
      <path id="Path_2118" data-name="Path 2118" d="M0,0V15.244H2.772V4.729L28.527,30.487H18.015v2.772H33.258V18.015H30.487v10.51L4.731,2.772H15.243V0Z" transform="translate(1685.579 2011.763)" fill="#f78d1e"/>
    </g>
  </g>
</svg>
