<svg xmlns="http://www.w3.org/2000/svg" width="82.608" height="92.211" viewBox="0 0 82.608 92.211">
  <g id="i-locker-shiled" transform="translate(-815 -2014)">
    <g id="Group_2000" data-name="Group 2000" transform="translate(-890.632 99.66)">
      <rect id="Rectangle_232" data-name="Rectangle 232" width="80.763" height="62.866" transform="translate(1706.554 1915.263)" fill="#fff"/>
      <path id="Path_2104" data-name="Path 2104" d="M183.661,207.469H101.053V142.758h82.608ZM102.9,205.624h78.918V144.6H102.9Z" transform="translate(1604.579 1771.582)" fill="#83a3c4"/>
      <path id="Path_2105" data-name="Path 2105" d="M219.789,280.056h-61.48V231.768h61.48Zm-59.634-1.845h57.789v-44.6H160.154Z" transform="translate(1557.887 1698.995)" fill="#83a3c4"/>
      <rect id="Rectangle_233" data-name="Rectangle 233" width="58.658" height="0.923" transform="translate(1717.607 1936.661)" fill="#83a3c4"/>
      <rect id="Rectangle_234" data-name="Rectangle 234" width="58.658" height="0.923" transform="translate(1717.607 1942.664)" fill="#83a3c4"/>
      <rect id="Rectangle_235" data-name="Rectangle 235" width="58.658" height="0.923" transform="translate(1717.607 1948.668)" fill="#83a3c4"/>
      <rect id="Rectangle_236" data-name="Rectangle 236" width="58.658" height="0.923" transform="translate(1717.607 1954.671)" fill="#83a3c4"/>
      <rect id="Rectangle_237" data-name="Rectangle 237" width="58.658" height="0.923" transform="translate(1717.607 1960.675)" fill="#83a3c4"/>
      <rect id="Rectangle_238" data-name="Rectangle 238" width="58.658" height="0.923" transform="translate(1717.607 1966.678)" fill="#83a3c4"/>
      <rect id="Rectangle_239" data-name="Rectangle 239" width="58.658" height="0.923" transform="translate(1717.607 1972.682)" fill="#83a3c4"/>
    </g>
    <g id="Group_2006" data-name="Group 2006" transform="translate(0.497 24.856)">
      <path id="Path_2112" data-name="Path 2112" d="M20.813,53.185l-9.394-7.309A29.38,29.38,0,0,1,0,22.531V4.55L1.231,4.7c8.025.99,14.212-.361,18.894-4.145L20.813,0,21.5.556C26.183,4.34,32.366,5.692,40.4,4.7l1.231-.151v17.98A29.38,29.38,0,0,1,30.208,45.877Z" transform="translate(835.213 2027.262)" fill="#fff"/>
      <path id="Path_2110" data-name="Path 2110" d="M21.523,55l-9.715-7.558A30.382,30.382,0,0,1,0,23.3V4.706l1.273.156c8.3,1.024,14.7-.374,19.539-4.287L21.523,0l.711.575C27.076,4.488,33.47,5.886,41.773,4.862l1.273-.156V23.3A30.382,30.382,0,0,1,31.238,47.442ZM2.266,7.252V23.3A28.145,28.145,0,0,0,13.2,45.654l8.326,6.475,8.326-6.475A28.145,28.145,0,0,0,40.781,23.3V7.252c-7.948.773-14.273-.659-19.258-4.364-4.982,3.7-11.31,5.136-19.258,4.364" transform="translate(834.503 2026.354)" fill="#f78d1e"/>
      <path id="Path_2111" data-name="Path 2111" d="M17.726,42.051l-6.983-5.823A21.462,21.462,0,0,1,3,19.694V7.575l1.273.156c5.553.7,9.117-1.119,12.742-4.051l.711-.578.711.578c3.623,2.932,7.187,4.746,12.742,4.051l1.273-.156V19.694a21.462,21.462,0,0,1-7.744,16.534ZM5.266,10.1v9.59a19.2,19.2,0,0,0,6.93,14.8l5.53,4.608,5.53-4.608a19.2,19.2,0,0,0,6.93-14.8V10.1c-4.581.283-8.315-.927-12.461-4.1C13.578,9.177,9.84,10.387,5.266,10.1" transform="translate(838.299 2030.282)" fill="#f78d1e"/>
    </g>
  </g>
</svg>
