<svg xmlns="http://www.w3.org/2000/svg" width="82.608" height="90.788" viewBox="0 0 82.608 90.788">
  <g id="i-locker-happyface" transform="translate(-233 -2014)">
    <g id="Group_2009" data-name="Group 2009" transform="translate(-1472.632 99.66)">
      <rect id="Rectangle_232" data-name="Rectangle 232" width="80.763" height="62.866" transform="translate(1706.554 1915.263)" fill="#fff"/>
      <path id="Path_2104" data-name="Path 2104" d="M183.661,207.469H101.053V142.758h82.608ZM102.9,205.624h78.918V144.6H102.9Z" transform="translate(1604.579 1771.582)" fill="#83a3c4"/>
      <path id="Path_2105" data-name="Path 2105" d="M219.789,280.056h-61.48V231.768h61.48Zm-59.634-1.845h57.789v-44.6H160.154Z" transform="translate(1557.887 1698.995)" fill="#83a3c4"/>
      <rect id="Rectangle_233" data-name="Rectangle 233" width="58.658" height="0.923" transform="translate(1717.607 1936.661)" fill="#83a3c4"/>
      <rect id="Rectangle_234" data-name="Rectangle 234" width="58.658" height="0.923" transform="translate(1717.607 1942.664)" fill="#83a3c4"/>
      <rect id="Rectangle_235" data-name="Rectangle 235" width="58.658" height="0.923" transform="translate(1717.607 1948.668)" fill="#83a3c4"/>
      <rect id="Rectangle_236" data-name="Rectangle 236" width="58.658" height="0.923" transform="translate(1717.607 1954.671)" fill="#83a3c4"/>
      <rect id="Rectangle_237" data-name="Rectangle 237" width="58.658" height="0.923" transform="translate(1717.607 1960.675)" fill="#83a3c4"/>
      <rect id="Rectangle_238" data-name="Rectangle 238" width="58.658" height="0.923" transform="translate(1717.607 1966.678)" fill="#83a3c4"/>
      <rect id="Rectangle_239" data-name="Rectangle 239" width="58.658" height="0.923" transform="translate(1717.607 1972.682)" fill="#83a3c4"/>
    </g>
    <g id="Group_2010" data-name="Group 2010" transform="translate(1.332 21.555)">
      <path id="Path_2117" data-name="Path 2117" d="M24.067,0A24.067,24.067,0,1,0,48.134,24.067,24.095,24.095,0,0,0,24.067,0" transform="translate(249.01 2033.088)" fill="#fff"/>
      <path id="Path_2113" data-name="Path 2113" d="M8.268,12.535A2.268,2.268,0,1,0,6,10.268a2.268,2.268,0,0,0,2.268,2.268" transform="translate(254.605 2041.219)" fill="#f78d1e"/>
      <path id="Path_2114" data-name="Path 2114" d="M17.268,12.535A2.268,2.268,0,1,0,15,10.268a2.268,2.268,0,0,0,2.268,2.268" transform="translate(266.014 2041.219)" fill="#f78d1e"/>
      <path id="Path_2115" data-name="Path 2115" d="M26.077,0A26.077,26.077,0,1,0,52.154,26.077,26.107,26.107,0,0,0,26.077,0m0,49.887a23.81,23.81,0,1,1,23.81-23.81,23.836,23.836,0,0,1-23.81,23.81" transform="translate(247 2031.078)" fill="#f78d1e"/>
      <path id="Path_2116" data-name="Path 2116" d="M33.345,13H6.134A1.134,1.134,0,0,0,5,14.134a14.739,14.739,0,0,0,29.478,0A1.134,1.134,0,0,0,33.345,13M19.739,26.605A12.49,12.49,0,0,1,7.317,15.268H32.161A12.49,12.49,0,0,1,19.739,26.605" transform="translate(253.338 2047.557)" fill="#f78d1e"/>
    </g>
  </g>
</svg>
