<svg xmlns="http://www.w3.org/2000/svg" xmlns:xlink="http://www.w3.org/1999/xlink" width="490.6" height="200.151" viewBox="0 0 490.6 200.151">
  <defs>
    <clipPath id="clip-path">
      <rect id="Rectangle_230" data-name="Rectangle 230" width="289.716" height="182.869" fill="#afcceb"/>
    </clipPath>
    <clipPath id="clip-path-2">
      <rect id="Rectangle_86" data-name="Rectangle 86" width="53.153" height="172.094" fill="none"/>
    </clipPath>
    <clipPath id="clip-path-3">
      <rect id="Rectangle_82" data-name="Rectangle 82" width="179.559" height="134.541" fill="none"/>
    </clipPath>
    <clipPath id="clip-path-4">
      <rect id="Rectangle_85" data-name="Rectangle 85" width="118.513" height="76.899" fill="none"/>
    </clipPath>
  </defs>
  <g id="Group_1996" data-name="Group 1996" transform="translate(-945.408 -1076.748)">
    <g id="Group_1995" data-name="Group 1995" transform="translate(1146.292 1076.748)">
      <g id="Group_1994" data-name="Group 1994" clip-path="url(#clip-path)">
        <path id="Path_2097" data-name="Path 2097" d="M274,91.27a53.306,53.306,0,0,0-37.941-15.716,54.084,54.084,0,0,0-12.134,1.373l-.878-3.039a55.033,55.033,0,0,1,11.638-1.242,3.137,3.137,0,0,0,3.1-3.709,61.977,61.977,0,0,0-15.588,2L220.6,65.4,209.1,26a6.589,6.589,0,0,0,1.2-1.034,11.9,11.9,0,0,0-.721-23.183,3.486,3.486,0,1,0-1.219,4.66,7.1,7.1,0,0,1-.326,14.078h-7.2v6.583H203.5a2.9,2.9,0,0,0,.078.361l6.849,23.469H106.749L99.006,37.929h12.032a8.2,8.2,0,0,0-8.2-8.2H76.626a8.2,8.2,0,0,0,8.2,8.2h7.538l9.382,15.759L85.411,77.767a61.429,61.429,0,0,0-75.116,9.1,3.149,3.149,0,0,0-.535,3.737A61.9,61.9,0,0,1,83.785,80.162L81.6,83.384a53.643,53.643,0,1,0,24.337,57.983l42.108,3.2a1.25,1.25,0,0,0,.918,1.5l3.124.78a1.245,1.245,0,0,0,1.909.477l5.65,1.412a1.256,1.256,0,0,0,.609-2.436l-6.063-1.515-.153-.734a15.619,15.619,0,0,0,7.845-24.905l50.8-60.515L215.118,67l1.626,5.631a61.905,61.905,0,0,0-40.792,58.141,3.136,3.136,0,0,0,3.708-3.1A55.12,55.12,0,0,1,217.54,75.383l.9,3.121A53.682,53.682,0,1,0,274,91.27m-67.1-34.629-49.368,58.813a15.672,15.672,0,0,0-9-2.02l-2.408.192-2.776-7.977,2.859.976a1.256,1.256,0,0,0,.812-2.376l-10.42-3.558a1.24,1.24,0,0,0-.258-.058L110.146,56.642Zm-99.671,69.493a53.98,53.98,0,0,0-.929-7.408l32.621-2.6,1.426,2.4a14.3,14.3,0,0,0-4.264,7.613Zm-54.77,49.811-.048,0a46.531,46.531,0,0,1-12.374-2.01L52,137.111a8.1,8.1,0,0,0,1.581.28l1.876.142,11.827,36.4a46.544,46.544,0,0,1-12.37,2.01l-.052,0q-.575.015-1.153.015h-.095q-.58,0-1.157-.015m16.65-2.611L57.523,137.691l7.375.56,26.145,19A46.957,46.957,0,0,1,69.1,173.335M16.27,157.247l31.539-22.914a8.308,8.308,0,0,0,2.411,2.037L38.209,173.335A46.955,46.955,0,0,1,16.27,157.247m-9.346-26.8c0-.011,0-.022,0-.034,0-.185,0-.372-.007-.557h39.1a8.122,8.122,0,0,0,.77,2.847L15.15,155.688a46.471,46.471,0,0,1-8.226-25.24M38.392,85.023l11.994,36.914a8.3,8.3,0,0,0-2.261,1.755l-31.546-22.92a46.943,46.943,0,0,1,21.813-15.75M59.62,126.134c-.02-.037-.035-.077-.055-.114l.307-.453,4.853-3.526,34.616-2.76a46.659,46.659,0,0,1,.961,6.853Zm8.081-6.255,24.172-17.562a46.566,46.566,0,0,1,7.017,15.075Zm23.033-19.106-26.7,19.4-.529.042L82.4,92.367a47.14,47.14,0,0,1,8.335,8.406M58.294,117.732,68.921,85.023A46.58,46.58,0,0,1,77.7,89.132Zm-11.282,7.524a8.154,8.154,0,0,0-.922,2.682H6.925a46.478,46.478,0,0,1,8.514-25.62Zm9.7,9.931a6.73,6.73,0,0,0,1.928-1.484l3.3,2.4-5.059-.384Zm11.835,3.342,30.4,2.308a46.548,46.548,0,0,1-6.78,14.852Zm-2.958-2.149-5.879-4.272c.043-.089.09-.176.129-.267h40.5a46.642,46.642,0,0,1-.947,7.105ZM53.659,82.462q.6,0,1.2.015h.034a46.527,46.527,0,0,1,12.2,1.955L55.256,120.872l-1.709.136a8.07,8.07,0,0,0-1.368.235L40.219,84.433a46.541,46.541,0,0,1,12.2-1.955h.03q.6-.016,1.2-.015Zm86.665,22.157,2.275,6.536-4.3-7.229ZM88.637,83.173a62.192,62.192,0,0,1,8.916,7.433,3.148,3.148,0,0,0-.535-3.737,61.57,61.57,0,0,0-6.869-5.924L104.97,59.1l32.852,55.186-31.939,2.547A53.309,53.309,0,0,0,91.6,91.27a54.54,54.54,0,0,0-5.3-4.651ZM107.25,131.84h28.828a14.347,14.347,0,0,0,9.056,10.579l-38.8-2.946a54.037,54.037,0,0,0,.914-7.633m127.606,44.106-.048,0a46.553,46.553,0,0,1-12.374-2.01l12.388-38.127a6.518,6.518,0,0,0,2.472,0l12.388,38.127a46.547,46.547,0,0,1-12.371,2.01l-.051,0q-.575.015-1.154.015h-.095q-.58,0-1.156-.015m0-93.469q.6-.016,1.2-.015h0q.6,0,1.2.015h.034a46.537,46.537,0,0,1,12.2,1.955l-12.389,38.13L225.849,83.588a46.669,46.669,0,0,1,8.975-1.11h.031m47.934,48.038a46.468,46.468,0,0,1-8.224,25.174l-32.456-23.581a6.646,6.646,0,0,0,.631-2.25H282.8c0,.185,0,.37-.007.554,0,.035,0,.069,0,.1m-31.283,42.82-12.4-38.148a6.724,6.724,0,0,0,1.928-1.484l32.406,23.544a46.956,46.956,0,0,1-21.939,16.088m-52.835-16.088L231.078,133.7a6.73,6.73,0,0,0,1.928,1.484l-12.395,38.148a46.955,46.955,0,0,1-21.939-16.088m-9.346-26.8c0-.011,0-.022,0-.034,0-.185,0-.372-.007-.557h40.06a6.656,6.656,0,0,0,.631,2.25l-32.456,23.581a46.471,46.471,0,0,1-8.226-25.24m83.811-29.675-32.453,23.579a6.712,6.712,0,0,0-1.748-1.2l12.389-38.128a46.944,46.944,0,0,1,21.813,15.75m9.653,27.136v.028H242.649a6.663,6.663,0,0,0-.778-2.077l32.4-23.544a46.478,46.478,0,0,1,8.513,25.592m-51.156-3.739c-.067.059-.134.119-.2.181l-32.453-23.579a46.952,46.952,0,0,1,21.387-15.6Zm-1.387,1.69a6.653,6.653,0,0,0-.777,2.077H189.327a46.478,46.478,0,0,1,8.514-25.62Z" transform="translate(0 0.001)" fill="#afcceb"/>
      </g>
    </g>
    <g id="Group_1984" data-name="Group 1984" transform="translate(998.56 1094.692)">
      <rect id="Rectangle_63" data-name="Rectangle 63" width="94.375" height="74.22" transform="translate(112.613 74.22)" fill="#afcceb"/>
      <rect id="Rectangle_64" data-name="Rectangle 64" width="128.157" height="74.22" transform="translate(0 74.22)" fill="#afcceb"/>
      <rect id="Rectangle_65" data-name="Rectangle 65" width="80.551" height="74.22" transform="translate(98.404 0)" fill="#afcceb"/>
      <rect id="Rectangle_218" data-name="Rectangle 218" width="48.215" height="44.889" transform="translate(50.189 29.331)" fill="#afcceb"/>
    </g>
    <g id="Group_1993" data-name="Group 1993" transform="translate(1178.661 1176.931)">
      <path id="Path_2098" data-name="Path 2098" d="M0,0H113.252V82.685H0Z" transform="translate(53.978 0.001)" fill="#f5ae31"/>
      <rect id="Rectangle_225" data-name="Rectangle 225" width="113.252" height="82.685" transform="translate(0 0.001)" fill="#fcbe12"/>
      <rect id="Rectangle_226" data-name="Rectangle 226" width="39.084" height="25.055" transform="translate(66.472 10.024)" fill="#f0f8ff"/>
      <rect id="Rectangle_227" data-name="Rectangle 227" width="40.635" height="1.818" transform="translate(61.44 27.782)" fill="#afcceb"/>
      <rect id="Rectangle_228" data-name="Rectangle 228" width="40.635" height="1.818" transform="translate(61.44 22.596)" fill="#afcceb"/>
      <rect id="Rectangle_229" data-name="Rectangle 229" width="28.305" height="1.818" transform="translate(73.77 17.409)" fill="#afcceb"/>
    </g>
    <g id="Group_1985" data-name="Group 1985" transform="translate(945.408 1090)">
      <g id="Group_1808" data-name="Group 1808" clip-path="url(#clip-path-2)">
        <path id="Path_1810" data-name="Path 1810" d="M23.134,127.144c-10.547-2.039-20.876-12.42-21.144-22.982C1.83,97.825,5.446,97.558,8.2,84.4c2.388-11.43.8-15.163.23-16.317C6.05,63.3,2.672,63.612.842,58.638c-2.1-5.7.311-11.607.919-13.1,2.4-5.889,5.424-5.7,6.205-10.093,1.045-5.872-4-8.232-2.528-12.66,1.494-4.487,7.028-3.114,11.032-8.963,3.04-4.441,1.115-7.08,4.367-10.342C23.949.358,29.581-1.1,32.1.953c2.714,2.216-.464,6.667,2.528,11.261,2.69,4.131,6.613,2.612,8.5,5.995,2.969,5.314-5.5,11.118-3.447,18.845,1.651,6.209,7.856,5.583,9.193,11.491,1.527,6.747-6.147,9.409-5.975,17.467.182,8.53,8.865,9.407,10.112,19.3,1.146,9.1-5.005,17.823-5.745,18.845-3.54,4.893-6.652,5.792-8.5,11.261-1.561,4.612-.3,6.769-2.3,9.193-3.637,4.4-12.3,2.726-13.329,2.528" transform="translate(0 -2.343)" fill="#7bc46a"/>
        <path id="Path_1811" data-name="Path 1811" d="M75.287,196.183c3.609-59.331-.322-119.637-.322-119.637" transform="translate(-50.458 -53.865)" fill="none" stroke="#358e65" stroke-miterlimit="10" stroke-width="4"/>
        <path id="Path_1812" data-name="Path 1812" d="M79.962,268.591l12.879-23.216" transform="translate(-53.822 -167.502)" fill="none" stroke="#358e65" stroke-miterlimit="10" stroke-width="4"/>
        <path id="Path_1813" data-name="Path 1813" d="M55.224,137.891,43.669,118.266" transform="translate(-29.393 -81.947)" fill="none" stroke="#358e65" stroke-miterlimit="10" stroke-width="4"/>
        <path id="Path_1814" data-name="Path 1814" d="M52.7,445.968l3.182-32.257H21.837l3.182,32.257H20.639v4.59H56.69v-4.59Z" transform="translate(-13.892 -280.807)" fill="#f78d1e"/>
      </g>
    </g>
    <g id="Group_1982" data-name="Group 1982" transform="translate(981 1125.076)">
      <path id="Path_1968" data-name="Path 1968" d="M0,0H135.834V100.715H0Z" transform="translate(29.755 33.629)" fill="#f5ae31"/>
      <rect id="Rectangle_80" data-name="Rectangle 80" width="58.088" height="100.715" transform="translate(10.058 33.629)" fill="#fcbe12"/>
      <path id="Path_1802" data-name="Path 1802" d="M177.886,87.723l13.89,29.475h97.572l-13.89-29.475Z" transform="translate(-109.789 -54.141)" fill="#fdc854"/>
      <path id="Path_1803" data-name="Path 1803" d="M10.164,89.257,0,109.924H57.933L68.1,89.257Z" transform="translate(0 -55.088)" fill="#e09510"/>
      <path id="Path_1804" data-name="Path 1804" d="M177.886,87.723l13.89,29.475h83.6" transform="translate(-109.789 -54.141)" fill="none" stroke="#e09510" stroke-miterlimit="10" stroke-width="4.356"/>
      <path id="Path_1966" data-name="Path 1966" d="M0,0H12.01V12.009H0Z" transform="translate(31.493 122.532)" fill="#e09510"/>
    </g>
    <g id="Group_1983" data-name="Group 1983" transform="translate(1087.035 1200)">
      <path id="Path_1967" data-name="Path 1967" d="M0,0H103.5V76.9H0Z" transform="translate(15.009)" fill="#f5ae31"/>
      <rect id="Rectangle_84" data-name="Rectangle 84" width="44.263" height="76.899" fill="#fcbe12"/>
      <g id="Group_1806" data-name="Group 1806">
        <g id="Group_1805" data-name="Group 1805" clip-path="url(#clip-path-4)">
          <path id="Path_1809" data-name="Path 1809" d="M38.656,29.051H29.783a3.327,3.327,0,1,0,0,6.654h8.873a3.327,3.327,0,1,0,0-6.654" transform="translate(-12.088 -13.274)" fill="#f89f4f"/>
        </g>
      </g>
    </g>
  </g>
</svg>
