<svg xmlns="http://www.w3.org/2000/svg" width="143.756" height="117.806" viewBox="0 0 143.756 117.806">
  <g id="i-unit-size" transform="translate(-7.163)">
    <path id="Path_1815" data-name="Path 1815" d="M165.394,385.044l-64.53-.4,44.81-39.115,64.166.075Z" transform="translate(-81.904 -280.577)" fill="#004b99"/>
    <path id="Path_1816" data-name="Path 1816" d="M162.718,381.925l-64.53-.4-.612-1.648,44.81-39.114.619-.232,64.166.075.623,1.643-44.446,39.44Zm-62.036-2.265,61.687.383L204.7,342.482l-61.342-.072Z" transform="translate(-79.234 -276.518)" fill="#83a3c4"/>
    <rect id="Rectangle_93" data-name="Rectangle 93" width="64.048" height="64.048" transform="translate(63.663 0.94)" fill="#004b99"/>
    <path id="Path_1817" data-name="Path 1817" d="M335.551,1.881h62.168V64.049H335.551Zm-1.88,64.048H399.6V0H333.671Z" transform="translate(-270.948 -0.001)" fill="#83a3c4"/>
    <path id="Path_1818" data-name="Path 1818" d="M165.394,44.515l-64.53-.4L144.509,5H209.12Z" transform="translate(-81.904 -4.06)" fill="#004b99"/>
    <path id="Path_1819" data-name="Path 1819" d="M100.594,39.131l41.564-37.25h61.81L162.325,39.514ZM141.8,0l-.627.24L97.527,39.355,98.148,41l64.53.4.636-.243L207.041,1.638,206.41,0Z" transform="translate(-79.194 -0.001)" fill="#83a3c4"/>
    <rect id="Rectangle_94" data-name="Rectangle 94" width="64.048" height="64.048" transform="translate(19.443 40.054)" fill="#004b99"/>
    <path id="Path_1820" data-name="Path 1820" d="M164.358,274.007H98.431V208.08h65.927Zm-64.048-1.88h62.168V209.96H100.311Z" transform="translate(-79.928 -168.966)" fill="#83a3c4"/>
    <path id="Path_1821" data-name="Path 1821" d="M197.7,346.285H151.852v-49.2H197.7Zm-43.963-1.88h42.084V298.97H153.732Z" transform="translate(-123.307 -241.244)" fill="#83a3c4"/>
    <rect id="Rectangle_95" data-name="Rectangle 95" width="43.244" height="0.94" transform="translate(29.845 62.08)" fill="#83a3c4"/>
    <rect id="Rectangle_96" data-name="Rectangle 96" width="43.244" height="0.94" transform="translate(29.845 68.197)" fill="#83a3c4"/>
    <rect id="Rectangle_97" data-name="Rectangle 97" width="43.244" height="0.94" transform="translate(29.845 74.313)" fill="#83a3c4"/>
    <rect id="Rectangle_98" data-name="Rectangle 98" width="43.244" height="0.94" transform="translate(29.845 80.43)" fill="#83a3c4"/>
    <rect id="Rectangle_99" data-name="Rectangle 99" width="43.244" height="0.94" transform="translate(29.845 86.546)" fill="#83a3c4"/>
    <rect id="Rectangle_100" data-name="Rectangle 100" width="43.244" height="0.94" transform="translate(29.845 92.662)" fill="#83a3c4"/>
    <rect id="Rectangle_101" data-name="Rectangle 101" width="43.244" height="0.94" transform="translate(29.845 98.779)" fill="#83a3c4"/>
    <path id="Path_1822" data-name="Path 1822" d="M134.449,370.419H54.467v-1.88h79.244L187.5,318.564l1.279,1.377Z" transform="translate(-44.228 -258.681)" fill="#f78d1e"/>
    <rect id="Rectangle_102" data-name="Rectangle 102" width="1.88" height="84.26" transform="translate(88.912 26.538)" fill="#f78d1e"/>
    <path id="Path_2130" data-name="Path 2130" d="M381.755,175.28l-1.675,1.675,5.478,5.478-5.478,5.478,1.675,1.675c6.539-6.539,7.663-6.837,7.663-7.153Z" transform="translate(396.58 293.086) rotate(180)" fill="#f78d1e"/>
    <path id="Path_2131" data-name="Path 2131" d="M381.755,175.28l-1.675,1.675,5.478,5.478-5.478,5.478,1.675,1.675c6.539-6.539,7.663-6.837,7.663-7.153Z" transform="translate(-258.499 204.836) rotate(-45)" fill="#f78d1e"/>
    <path id="Path_2132" data-name="Path 2132" d="M381.755,175.28l-1.675,1.675,5.478,5.478-5.478,5.478,1.675,1.675c6.539-6.539,7.663-6.837,7.663-7.153Z" transform="translate(-92.581 412.286) rotate(-90)" fill="#f78d1e"/>
  </g>
</svg>
