<svg id="i-unit-type" xmlns="http://www.w3.org/2000/svg" width="185.501" height="91.41" viewBox="0 0 185.501 91.41">
  <path id="Path_1826" data-name="Path 1826" d="M184.724,94.565l-81.237-.393,30.163-26.306V5h80.764l.116,62.94Z" transform="translate(-84.392 -4.077)" fill="#004b99"/>
  <path id="Path_1827" data-name="Path 1827" d="M103.255,89.184l28.322-24.7.316-.7V1.845h78.92l.114,61.605L181.694,89.563ZM130.97,0l-.923.923V63.369L100.2,89.4l.6,1.618,81.237.393.619-.235L212.464,64.55l.308-.69L212.656.921,211.734,0Z" transform="translate(-81.713)" fill="#83a3c4"/>
  <path id="Path_1828" data-name="Path 1828" d="M184.724,31.7l-81.237-.393L133.649,5l80.88.074Z" transform="translate(-84.392 -4.077)" fill="#004b99"/>
  <path id="Path_1829" data-name="Path 1829" d="M103.255,26.318,131.315,1.845l78.119.071L181.694,26.7ZM130.971,0l-.607.227L100.2,26.533l.6,1.618,81.237.393.619-.235L212.464,1.684,211.851.074Z" transform="translate(-81.713)" fill="#83a3c4"/>
  <rect id="Rectangle_105" data-name="Rectangle 105" width="80.764" height="62.866" transform="translate(19.568 27.263)" fill="#004b99"/>
  <path id="Path_1830" data-name="Path 1830" d="M183.662,207.469H101.053V142.758h82.609ZM102.9,205.624h78.918V144.6H102.9Z" transform="translate(-82.408 -116.418)" fill="#83a3c4"/>
  <path id="Path_1831" data-name="Path 1831" d="M219.789,280.056h-61.48V231.768h61.48Zm-59.635-1.845h57.79v-44.6h-57.79Z" transform="translate(-129.099 -189.004)" fill="#83a3c4"/>
  <rect id="Rectangle_106" data-name="Rectangle 106" width="58.659" height="0.923" transform="translate(30.62 48.661)" fill="#83a3c4"/>
  <rect id="Rectangle_107" data-name="Rectangle 107" width="58.659" height="0.923" transform="translate(30.62 54.664)" fill="#83a3c4"/>
  <rect id="Rectangle_108" data-name="Rectangle 108" width="58.659" height="0.923" transform="translate(30.62 60.668)" fill="#83a3c4"/>
  <rect id="Rectangle_109" data-name="Rectangle 109" width="58.659" height="0.923" transform="translate(30.62 66.672)" fill="#83a3c4"/>
  <rect id="Rectangle_110" data-name="Rectangle 110" width="58.659" height="0.923" transform="translate(30.62 72.675)" fill="#83a3c4"/>
  <rect id="Rectangle_111" data-name="Rectangle 111" width="58.659" height="0.923" transform="translate(30.62 78.679)" fill="#83a3c4"/>
  <rect id="Rectangle_112" data-name="Rectangle 112" width="58.659" height="0.923" transform="translate(30.62 84.683)" fill="#83a3c4"/>
  <path id="Path_1832" data-name="Path 1832" d="M628.735,164.463l-46.664-.29,22.222-19.38V98.478h46.315l.086,46.37Z" transform="translate(-474.673 -80.308)" fill="#004b99"/>
  <path id="Path_1833" data-name="Path 1833" d="M626.05,161.307l-46.664-.29-.6-1.618,21.906-19.1V94.4l.922-.923h46.315l.922.921.085,46.37-.308.69L626.67,161.073Zm-44.214-2.12,43.871.273,21.385-19.1-.083-45.035H602.536v45.393l-.316.7Z" transform="translate(-471.993 -76.229)" fill="#83a3c4"/>
  <path id="Path_1834" data-name="Path 1834" d="M628.735,118.148l-46.664-.29,22.222-19.38,46.4.054Z" transform="translate(-474.673 -80.308)" fill="#004b99"/>
  <path id="Path_1835" data-name="Path 1835" d="M626.05,114.993l-46.664-.29-.6-1.618,22.222-19.38.608-.227,46.4.054.613,1.61L626.67,114.758Zm-44.214-2.12,43.871.273L645.6,95.375l-43.641-.051Z" transform="translate(-471.993 -76.23)" fill="#83a3c4"/>
  <rect id="Rectangle_113" data-name="Rectangle 113" width="46.315" height="46.315" transform="translate(107.747 37.576)" fill="#004b99"/>
  <path id="Path_1836" data-name="Path 1836" d="M627.122,246.811h-48.16v-48.16h48.16Zm-46.315-1.845h44.47V200.5h-44.47Z" transform="translate(-472.137 -161.998)" fill="#83a3c4"/>
  <path id="Path_1837" data-name="Path 1837" d="M660.05,296.261h-28.9V259.289h28.9Zm-27.057-1.845H658.2V261.134H632.992Z" transform="translate(-514.694 -211.447)" fill="#83a3c4"/>
  <rect id="Rectangle_114" data-name="Rectangle 114" width="27.071" height="0.923" transform="translate(117.363 54.517)" fill="#83a3c4"/>
  <rect id="Rectangle_115" data-name="Rectangle 115" width="27.071" height="0.923" transform="translate(117.363 60.521)" fill="#83a3c4"/>
  <rect id="Rectangle_116" data-name="Rectangle 116" width="27.071" height="0.923" transform="translate(117.363 66.524)" fill="#83a3c4"/>
  <rect id="Rectangle_117" data-name="Rectangle 117" width="27.071" height="0.923" transform="translate(117.363 72.528)" fill="#83a3c4"/>
  <rect id="Rectangle_118" data-name="Rectangle 118" width="27.071" height="0.923" transform="translate(117.363 78.531)" fill="#83a3c4"/>
  <rect id="Rectangle_119" data-name="Rectangle 119" width="32.547" height="32.547" transform="translate(0.923 0.923)" fill="#004b99"/>
  <path id="Path_1838" data-name="Path 1838" d="M1.845,1.846h30.7v30.7H1.845ZM0,34.393H34.392V0H0Z" transform="translate(0 -0.001)" fill="#f78d1e"/>
  <path id="Path_1839" data-name="Path 1839" d="M45.051,66.453l5.119,5.119L62.818,58.923" transform="translate(-36.739 -48.051)" fill="#004b99"/>
  <path id="Path_1840" data-name="Path 1840" d="M45.845,69.2l-6.1-6.1,1.957-1.957,4.14,4.14,11.67-11.67,1.957,1.957Z" transform="translate(-32.414 -43.725)" fill="#f78d1e"/>
  <rect id="Rectangle_120" data-name="Rectangle 120" width="23.167" height="23.167" transform="translate(161.412 11.937)" fill="#004b99"/>
  <path id="Path_1841" data-name="Path 1841" d="M871.653,61.542h21.322V82.863H871.653Zm-1.845,23.167H894.82V59.7H869.808Z" transform="translate(-709.319 -48.682)" fill="#f78d1e"/>
  <line id="Line_60" data-name="Line 60" y1="9.003" x2="9.003" transform="translate(168.493 19.019)" fill="#004b99"/>
  <rect id="Rectangle_121" data-name="Rectangle 121" width="12.733" height="2.768" transform="matrix(0.707, -0.707, 0.707, 0.707, 167.515, 27.044)" fill="#f78d1e"/>
  <line id="Line_61" data-name="Line 61" x2="9.003" y2="9.003" transform="translate(168.493 19.019)" fill="#004b99"/>
  <rect id="Rectangle_122" data-name="Rectangle 122" width="2.768" height="12.733" transform="matrix(0.707, -0.707, 0.707, 0.707, 167.515, 19.997)" fill="#f78d1e"/>
</svg>
