<svg xmlns="http://www.w3.org/2000/svg" width="200" height="53.106" viewBox="0 0 200 53.106">
  <g id="Group_1969" data-name="Group 1969" transform="translate(0)">
    <path id="Path_1755" data-name="Path 1755" d="M1649.685,480.225h3.264l3.633,5.816,3.613-5.816h3.262v13.761h-3.008V485l-3.867,5.879h-.078l-3.85-5.82v8.926h-2.969Z" transform="translate(-1639.54 -456.149)" fill="#004b99"/>
    <rect id="Rectangle_43" data-name="Rectangle 43" width="3.027" height="13.761" transform="translate(28.328 24.077)" fill="#004b99"/>
    <path id="Path_1756" data-name="Path 1756" d="M1754.98,480.225h2.793l6.445,8.472v-8.472h3.008v13.761h-2.578l-6.68-8.746v8.746h-2.988Z" transform="translate(-1719.2 -456.149)" fill="#004b99"/>
    <rect id="Rectangle_44" data-name="Rectangle 44" width="3.027" height="13.761" transform="translate(52.43 24.077)" fill="#004b99"/>
    <path id="Path_1757" data-name="Path 1757" d="M1902.424,480.225h10.371v2.69h-7.383v2.793h6.5v2.7h-6.5v2.891h7.481v2.691h-10.469Z" transform="translate(-1830.753 -456.149)" fill="#004b99"/>
    <path id="Path_1758" data-name="Path 1758" d="M1960.561,480.225h2.793l6.445,8.472v-8.472h2.988v13.761h-2.578l-6.66-8.746v8.746h-2.988Z" transform="translate(-1874.729 -456.149)" fill="#004b99"/>
    <path id="Path_1759" data-name="Path 1759" d="M2028.533,483.018h-4.18v-2.793h11.387v2.793h-4.18v10.967h-3.027Z" transform="translate(-1922.994 -456.148)" fill="#004b99"/>
    <path id="Path_1760" data-name="Path 1760" d="M2084.752,480.225h6.309a5.4,5.4,0,0,1,3.984,1.4,4.277,4.277,0,0,1,1.211,3.145v.039a4.282,4.282,0,0,1-2.969,4.268l3.379,4.913h-3.535l-2.969-4.4h-2.383v4.4h-3.027Zm6.113,6.685c1.445,0,2.3-.786,2.3-1.943v-.039c0-1.3-.9-1.968-2.363-1.968h-3.027v3.951Z" transform="translate(-1968.682 -456.149)" fill="#004b99"/>
    <path id="Path_1761" data-name="Path 1761" d="M2147.168,480.225h10.391v2.69h-7.344v2.793h6.465v2.7h-6.465v2.891h7.441v2.691h-10.488Z" transform="translate(-2015.911 -456.149)" fill="#004b99"/>
    <path id="Path_1762" data-name="Path 1762" d="M2205.307,480.225h5.645c3.283,0,5.256,1.948,5.256,4.756v.044c0,3.184-2.461,4.834-5.568,4.834h-2.285v4.126h-3.047Zm5.43,6.939a2.147,2.147,0,0,0,2.424-2.085v-.034c0-1.357-.959-2.085-2.463-2.085h-2.344v4.2Z" transform="translate(-2059.889 -456.149)" fill="#004b99"/>
    <path id="Path_1763" data-name="Path 1763" d="M2260.779,474.192v-.039a7.319,7.319,0,0,1,14.631-.039v.039a7.131,7.131,0,0,1-7.346,7.115,7.047,7.047,0,0,1-7.285-7.076m11.465,0v-.039a4.19,4.19,0,0,0-4.18-4.326,4.109,4.109,0,0,0-4.121,4.287v.039a4.178,4.178,0,0,0,4.18,4.327,4.121,4.121,0,0,0,4.121-4.288m-5.566-11.084h2.832l2.52,2.886h-2.4l-1.562-1.1-1.543,1.1h-2.363Z" transform="translate(-2101.86 -443.197)" fill="#004b99"/>
    <path id="Path_1764" data-name="Path 1764" d="M2333.715,483.018H2329.5v-2.793H2340.9v2.793h-4.18v10.967h-3.01Z" transform="translate(-2153.853 -456.148)" fill="#004b99"/>
    <path id="Path_1765" data-name="Path 1765" d="M2384.808,491.371l1.777-2.144a6.308,6.308,0,0,0,4.1,1.67c1.23,0,1.992-.488,1.992-1.294v-.039c0-.767-.488-1.162-2.773-1.753-2.793-.708-4.571-1.475-4.571-4.2v-.044c0-2.5,2.012-4.146,4.8-4.146a8.016,8.016,0,0,1,5.137,1.748l-1.6,2.285a6.36,6.36,0,0,0-3.555-1.357c-1.172,0-1.778.527-1.778,1.2v.039c0,.9.605,1.2,2.969,1.812,2.793.728,4.375,1.729,4.375,4.126v.039c0,2.73-2.09,4.268-5.059,4.268a8.668,8.668,0,0,1-5.821-2.2" transform="translate(-2195.688 -455.536)" fill="#004b99"/>
    <rect id="Rectangle_45" data-name="Rectangle 45" width="51.468" height="1.554" transform="translate(6.798 8.435)" fill="#004b99"/>
    <rect id="Rectangle_46" data-name="Rectangle 46" width="51.468" height="1.554" transform="translate(6.798 11.931)" fill="#004b99"/>
    <rect id="Rectangle_47" data-name="Rectangle 47" width="51.468" height="1.554" transform="translate(6.798 15.427)" fill="#004b99"/>
    <rect id="Rectangle_48" data-name="Rectangle 48" width="51.468" height="1.554" transform="translate(6.798 18.923)" fill="#004b99"/>
    <path id="Path_1766" data-name="Path 1766" d="M1903.3,563.792l.879-1.04a3.787,3.787,0,0,0,2.6,1.074c.9,0,1.465-.425,1.465-1.035v-.024c0-.586-.332-.9-1.855-1.26-1.758-.425-2.754-.937-2.754-2.456v-.029c0-1.406,1.191-2.393,2.832-2.393a4.6,4.6,0,0,1,2.988,1.04l-.781,1.094a3.847,3.847,0,0,0-2.246-.845c-.859,0-1.328.435-1.328.977v.024c0,.635.371.918,1.953,1.294,1.758.42,2.637,1.045,2.637,2.412v.024c0,1.543-1.211,2.461-2.949,2.461a5.1,5.1,0,0,1-3.437-1.318" transform="translate(-1831.41 -513.951)" fill="#f78d1e"/>
    <path id="Path_1767" data-name="Path 1767" d="M1955.863,556.871h1.328l3.633,8.3H1959.3l-.84-1.992h-3.906l-.84,1.992h-1.484Zm2.07,5.02-1.426-3.3-1.406,3.3Z" transform="translate(-1868.425 -514.132)" fill="#f78d1e"/>
    <path id="Path_1768" data-name="Path 1768" d="M2010.928,561.854v-4.742h1.465V561.8c0,1.533.781,2.344,2.07,2.344s2.07-.771,2.07-2.29v-4.742H2018v4.673c0,2.461-1.406,3.7-3.555,3.7s-3.516-1.235-3.516-3.628" transform="translate(-1912.84 -514.318)" fill="#f78d1e"/>
    <path id="Path_1769" data-name="Path 1769" d="M2064.5,557.113h1.582l2.48,6.333,2.48-6.333h1.582l-3.418,8.3h-1.289Z" transform="translate(-1953.362 -514.319)" fill="#f78d1e"/>
    <path id="Path_1770" data-name="Path 1770" d="M2123,557.113h6.113v1.294h-4.668v2.144h4.141v1.3h-4.141v2.212h4.727v1.289H2123Z" transform="translate(-1997.63 -514.319)" fill="#f78d1e"/>
    <path id="Path_1771" data-name="Path 1771" d="M2173.236,560.814v-.02a4.19,4.19,0,0,1,4.238-4.263,4.521,4.521,0,0,1,3.184,1.118l-.918,1.1a3.306,3.306,0,0,0-2.324-.884,2.784,2.784,0,0,0-2.676,2.9v.029a2.76,2.76,0,0,0,2.813,2.939,3.383,3.383,0,0,0,1.992-.625v-1.533h-2.109v-1.265h3.518v3.462a5.274,5.274,0,0,1-3.439,1.279,4.078,4.078,0,0,1-4.277-4.238" transform="translate(-2035.632 -513.878)" fill="#f78d1e"/>
    <path id="Path_1772" data-name="Path 1772" d="M2232.693,556.871h1.348l3.633,8.3h-1.543l-.82-1.992H2231.4l-.859,1.992h-1.465Zm2.07,5.02-1.406-3.3-1.426,3.3Z" transform="translate(-2077.876 -514.132)" fill="#f78d1e"/>
    <path id="Path_1773" data-name="Path 1773" d="M2289.515,557.112h3.672a3.286,3.286,0,0,1,2.365.82,2.454,2.454,0,0,1,.684,1.777v.024a2.458,2.458,0,0,1-1.955,2.5l2.248,3.12h-1.738l-2.014-2.866h-1.816v2.866h-1.445Zm3.574,4.083c1.035,0,1.682-.538,1.682-1.373V559.8c0-.889-.627-1.367-1.7-1.367h-2.109v2.764Z" transform="translate(-2123.589 -514.318)" fill="#f78d1e"/>
    <path id="Path_1774" data-name="Path 1774" d="M2343.813,557.112h3.086a4.109,4.109,0,0,1,4.375,4.092v.029a4.128,4.128,0,0,1-4.375,4.116h-3.086Zm1.445,1.318v5.6h1.641a2.675,2.675,0,0,0,2.852-2.778v-.02a2.694,2.694,0,0,0-2.852-2.8Z" transform="translate(-2164.678 -514.318)" fill="#f78d1e"/>
    <path id="Path_1775" data-name="Path 1775" d="M2400.963,557.113h6.113v1.294h-4.648v2.144h4.121v1.3h-4.121v2.212h4.707v1.289h-6.172Z" transform="translate(-2207.911 -514.319)" fill="#f78d1e"/>
    <path id="Path_1776" data-name="Path 1776" d="M1608.023,381.33v53.106h3.877V387.351h57.3v47.085h3.877V381.33Z" transform="translate(-1608.024 -381.33)" fill="#f78d1e"/>
  </g>
</svg>
