<svg xmlns="http://www.w3.org/2000/svg" width="150" height="150" viewBox="0 0 150 150">
  <g id="phone-primary" transform="translate(-3899 388)">
    <rect id="Rectangle_333" data-name="Rectangle 333" width="150" height="150" transform="translate(3899 -388)" fill="none"/>
    <path id="Path_2266" data-name="Path 2266" d="M92.978,103.146c-1.3-2.387-2.8-3.319-5.511-5.016l-.323-.2c-.91-.571-2.031-1.277-3.259-2.074-2.9-2.182-6.147-4.665-8.259-6.519-3.647-3.179-9.04-3.227-12.294-.1l-3.319,3.286a2.169,2.169,0,0,1-1.331.56C57.815,92.9,52.589,89.1,42.9,73.952c-1.406-2.2-2.521-4.035-3.157-5.14C39.1,67.686,38.076,65.8,36.9,63.484c-8.173-16.049-8.8-22.471-8.539-23.262a1.917,1.917,0,0,1,1.158-.894L34.089,38.1c4.31-1.207,6.982-5.883,6.082-10.651-.517-2.731-1.013-6.713-1.417-10.171-.1-1.869-.14-3.3-.172-4.493-.092-3.141-.14-4.87-1.411-7.047l-.237-.463A8.563,8.563,0,0,0,29.968.792L12.427,0C9.83.022,6.161,1.045,3.414,5.824-3.67,18.155.041,52.165,16.715,81.257l.641,1.126c16.663,29.081,44.122,49.483,58.361,49.607h.135c5.42,0,8.156-2.694,9.536-5.01L93.5,111.588a8.615,8.615,0,0,0-.517-8.442" transform="translate(3927 -379)" fill="#f78d1e"/>
  </g>
</svg>
